<?xml version="1.0" encoding="UTF-8" standalone="no"?>
<svg
   version="1.1"
   width="1220"
   height="1300"
   viewBox="-600 64 1220 1300"
   id="svg356"
   sodipodi:docname="cani.svg"
   inkscape:version="1.2.2 (b0a8486541, 2022-12-01, custom)"
   xmlns:inkscape="http://www.inkscape.org/namespaces/inkscape"
   xmlns:sodipodi="http://sodipodi.sourceforge.net/DTD/sodipodi-0.dtd"
   xmlns="http://www.w3.org/2000/svg"
   xmlns:svg="http://www.w3.org/2000/svg">
  <defs
     id="defs360" />
  <sodipodi:namedview
     id="namedview358"
     pagecolor="#ffffff"
     bordercolor="#666666"
     borderopacity="1.0"
     inkscape:showpageshadow="2"
     inkscape:pageopacity="0.0"
     inkscape:pagecheckerboard="0"
     inkscape:deskcolor="#d1d1d1"
     showgrid="false"
     inkscape:zoom="0.18153846"
     inkscape:cx="958.47458"
     inkscape:cy="652.75424"
     inkscape:window-width="1600"
     inkscape:window-height="792"
     inkscape:window-x="0"
     inkscape:window-y="27"
     inkscape:window-maximized="1"
     inkscape:current-layer="svg356" />
  <g
     id="g506"
     transform="translate(-293.52564,-24.867818)">
    <g
       style="fill:#000000;fill-opacity:0.6;stroke-linejoin:miter"
       id="g215"
       transform="matrix(0.7361101,0,0,1,54.123141,0)">
      <path
         d="m 967.7552,1281.7673 -5.7792,2.1084 q -41.08776,6.3719 -240.4452,10.1922 -200.7368,3.8171 -472.76276,3.0957 -259.613346,-1.0084 -415.26583,-5.9014 -49.87278,-1.5817 -82.15986,-3.4468 l -27.13642,-1.9174 q -22.36285,-1.9792 -22.61429,-4.1307 6.78873,-6.6026 185.42537,-10.987 178.63668,-4.3844 447.65642,-4.5511 269.01987,0.1667 447.65647,4.5511 178.6366,4.3844 185.4253,10.987"
         id="path213" />
    </g>
    <g
       style="fill:#000000;fill-opacity:1;stroke-linejoin:miter"
       id="g219">
      <path
         d="m 294.69357,285.93533 9e-5,0.002 7e-5,0.001 -1.6e-4,-0.003"
         id="path217" />
    </g>
    <g
       style="fill:#ffb89b;fill-opacity:1;stroke-linejoin:miter"
       id="g223">
      <path
         d="m 58.27805,755.51935 q 2.345497,-2.2182 5.96417,-1.4848 0.89491,0.19975 2.2462,0.91851 6.563994,4.21637 8.6692,4.93004 3.18288,1.356 7.51227,1.8188 10.22142,0.94385 20.47932,-1.1936 4.08298,-0.99414 4.25751,-2.99036 -14.97532,-9.14434 -14.24317,-11.28228 -0.08449,-1.6239 2.786004,-2.2359 2.836336,-0.55476 5.771186,0.56864 1.39177,0.53896 2.81663,1.5456 6.2677,5.05965 8.63422,6.5219 l 13.90937,8.732 q 1.85863,1.2097 4.87638,3.9646 0.46194,0.3739 1.04133,0.6953 2.08823,1.3179 11.84496,1.8999 l -0.25124,21.3218 q -31.88572,-2.48723 -53.32259,-10.7944 -13.696405,-5.3599 -28.995184,-15.1745 -7.02169,-4.70516 -4.067826,-7.6847 z"
         id="path221" />
    </g>
    <g
       style="fill:#ffffff;fill-opacity:1;stroke-linejoin:miter"
       id="g227">
      <path
         d="m 135.67867,763.5084 10.88656,1.24197 4.0535,30.33493 2.9e-4,0.0479 -14.28058,-1.8641 -0.65977,-29.7508 z"
         id="path225" />
    </g>
    <g
       style="fill:#000000;fill-opacity:1;stroke-linejoin:miter"
       id="g231">
      <path
         d="m 337.52084,610.56354 9.28089,15.15271 59.0563,31.45428 c 6.20929,54.55597 10.95377,85.82907 13.31272,94.10041 1.98382,6.95756 3.63183,12.90946 5.52205,17.75606 1.8328,4.6983 6.20094,12.90916 13.168,24.6734 1.36155,2.2988 2.2679,5.29875 1.94782,8.7853 -1.17697,12.8073 -3.86526,19.96834 -6.99719,21.5965 -1.75027,2.40236 -9.95853,2.13344 -24.62443,-0.80766 -7.4455,-4.47254 -13.96093,-11.20434 -19.30675,-20.3357 -2.20105,-3.75909 -3.983,-8.08314 -5.58609,-12.83564 l -6.43106,-22.255 c -1.41644,11.02985 -2.52194,18.0015 -2.1577,20.84626 0.5571,4.35748 1.58235,50.0047 1.93397,137.14007 l -14.45495,8.25117 -6.806,180.8977 c -0.78809,18.9702 -2.17316,33.4661 -2.82222,43.6011 -1.24587,19.4382 -10.2486,51.9243 -28.34392,97.3921 l -40.15802,-7.0254 -0.64188,-21.1504 c 0.13236,-1.2132 0.80292,-2.6631 2.01212,-4.3511 6.90414,-5.0718 10.26984,-8.1501 10.0971,-9.2388 0.30573,-0.2307 0.38773,-1.3938 0.2467,-3.4904 -3.41347,-9.6265 -4.6719,-15.5423 -3.77486,-17.7476 0.13516,-2.9893 3.42184,-8.7829 9.85956,-17.3816 -1.6318,-5.3313 -2.32932,-9.8965 -1.89847,-13.6777 3.34027,-29.3279 4.63464,-47.4776 4.32873,-54.5088 -0.35043,-8.053 -0.6329,-16.7661 -2.34948,-25.9719 -5.17188,-27.7398 -9.47492,-51.752 -12.51874,-72.1329 -0.81558,-5.4616 -2.09434,-10.77345 -3.36904,-16.01295 l -5.49977,-20.81641 -30.17553,73.80716 c -0.51136,2.3875 -1.03253,7.6863 -1.43238,15.9041 -0.38278,7.865 -0.0746,16.5764 0.79368,26.1286 l 8.8762,85.2183 c 0.28438,5.3936 2.43172,14.2703 6.442,26.6333 l -3.26657,14.2036 7.13387,12.6817 c 0.77208,3.1599 0.83595,8.1106 0.19123,14.8547 l -58.07659,-0.8132 8.98689,-25.4261 -13.79206,-18.1777 c -14.31572,-93.9346 -20.01266,-144.9065 -19.11476,-153.2187 4.5381,-41.9973 7.33065,-66.5698 9.02896,-73.8835 3.11376,-13.40835 6.07293,-22.4048 16.57311,-51.0351 l -15.3465,0.88725 c 6.739,-33.02325 16.25045,-76.44405 17.75955,-88.03945 2.33797,-17.9649 3.92011,-27.1987 4.00589,-36.4016 l -72.15158,4.6262 -2.10464,-36.8995 65.55665,-9.2277 c 8.42902,-27.38126 12.95684,-45.5215 14.62259,-54.2434 1.17336,-6.1453 0.95313,-16.25694 0.18314,-30.702 -0.35798,-6.72205 0.85789,-11.5786 1.52371,-14.61396 1.21081,-5.52124 3.99295,-12.20104 8.59134,-19.98687 l 37.77227,-10.89977 7.11167,-5.09755 57.05875,-8.15525 z"
         id="path229" />
    </g>
    <g
       style="fill:#ffffff;fill-opacity:1;stroke-linejoin:miter"
       id="g235">
      <path
         d="m 333.92813,607.5887 2.61407,8.3679 q -1.5579,18.6868 -2.0587,19.157 -0.57865,2.33006 -2.11466,6.2838 -9.91248,24.82623 -12.47382,31.9015 l -6.02576,17.13335 q -5.6915,17.2121 -9.30326,36.23485 -4.58764,21.3275 -15.8629,115.5619 -36.38468,5.04816 -56.72036,1.3626 9.05591,-73.07573 16.26235,-109.8221 8.61781,-47.901 33.23611,-115.5002 l 52.38284,-10.6678 z"
         id="path233" />
    </g>
    <g
       style="fill:#ffffff;fill-opacity:1;stroke-linejoin:miter"
       id="g239">
      <path
         d="m 411.5479,785.0367 25.90062,13.0627 q -9.39716,11.8007 -13.96872,14.7126 -4.8086,3.4555 -9.42517,1.1435 -2.96988,-1.5151 -5.25863,-5.0311 -2.14628,-3.37246 -2.47084,-7.0662 -0.71896,-6.402 5.2212,-16.8215 z"
         id="path237" />
    </g>
    <g
       style="fill:#000000;fill-opacity:1;stroke-linejoin:miter"
       id="g243">
      <path
         d="m 289.60965,634.623 9.98358,2.4238 6.22287,12.47615 -12.9869,7.67745 q 1.239,0.0502 0.94317,6.1399 -0.23172,6.1288 -2.09067,21.92923 -2.99298,26.08277 -17.91028,133.51917 l -15.0693,13.19476 -10.9021,-13.73386 0.015,-0.26584 27.84998,-140.65736 8.20328,-22.5823 -1.87806,-13.5766 7.60361,-6.5291 z"
         id="path241" />
    </g>
    <g
       style="fill:#000000;fill-opacity:1;stroke-linejoin:miter"
       id="g247">
      <path
         d="m 307.23032,507.0351 q -8.87534,0.61456 -18.9592,6.48364 -9.99698,5.63636 -13.246,12.36486 -2.81732,5.3658 -3.36102,17.4395 -0.79716,23.8271 0.62527,33.7308 l 59.4328,9.04315 q 11.96478,-3.54151 12.849,-8.69955 0.36197,-1.20896 0.57823,-3.10124 l 0.7918,-8.96786 q 2.19048,-15.8885 2.2373,-19.2275 0.4808,-8.04914 -1.09427,-13.05354 -2.51517,-9.60211 -17.48929,-19.1745 -11.87311,-7.88763 -22.35664,-6.83776 z"
         id="path245" />
    </g>
    <g
       style="fill:#ffb89b;fill-opacity:1;stroke-linejoin:miter"
       id="g251">
      <path
         d="m 319.7558,526.7561 -14.96097,2.7706 q -2.45261,0.3889 -11.36026,-0.0689 l -2.71024,0.23554 q -3.38418,0.54376 -6.85893,3.2937 -5.31578,4.19415 -6.9138,12.4786 -1.36823,5.8009 -0.23007,25.8305 -0.0129,0.3945 -0.39557,-0.4753 -1.79788,-5.5507 -2.41931,-6.6761 -0.6901,-1.5301 -1.57111,-1.99815 -2.3258,-0.78461 -3.95504,5.58785 -1.06934,5.70456 0.62737,10.90037 0.62085,1.74043 1.4906,2.75223 0.33329,0.5714 3.1121,2.7244 0.58203,0.61693 0.78781,1.1538 0.13682,-0.5641 1.57669,6.96893 l 1.24176,4.07017 q 0.70553,1.99325 1.42727,3.4758 0.31736,0.81475 2.16025,3.483 l 0.51727,1.4241 q 0.84113,2.30444 -0.50506,15.1853 l 2.33771,2.747 q 3.95785,5.12525 12.16266,13.4121 7.83105,-1.22136 19.27532,-7.6362 9.74421,-4.9683 16.37825,-10.6401 3.0563,-2.4382 4.09813,-3.52624 -0.70666,-5.35756 -0.60308,-9.76686 -0.22352,-0.1974 1.99948,-4.44957 0.33505,-0.77868 0.50509,-1.62127 0.30164,-0.84496 -0.12576,-5.41852 0.0316,-1.00208 0.28124,-1.45441 0.23493,-0.62018 1.32884,-1.12597 l 4.83041,-1.599 q 0.84757,-0.40442 1.69812,-1.5199 0.83103,-1.18152 1.49686,-3.03826 3.59042,-9.6887 3.57962,-10.59626 0.78085,-3.39754 -0.3262,-5.39664 -1.52558,-2.6023 -3.78845,-2.1346 -1.13068,0.3237 -2.30216,2.1578 -0.56264,0.6042 -3.75192,7.93075 -0.65252,1.19615 -0.75635,0.66711 -0.18289,-0.67496 0.0624,-3.14642 2.55164,-19.16734 2.34077,-22.34954 0.14596,-7.0527 -1.7374,-11.90473 -6.26233,-13.61981 -19.94104,-12.71657 z"
         id="path249" />
    </g>
    <g
       style="fill:#fa5422;fill-opacity:0.152941;stroke-linejoin:miter"
       id="g255">
      <path
         d="m 281.07117,604.47205 20.57156,27.89489 28.85587,-24.77824 q -10.1793,8.41576 -15.48578,11.1257 -6.18064,3.2603 -11.12085,2.9368 -10.04937,-0.6123 -22.78144,-17.1287 z"
         id="path253" />
    </g>
    <g
       style="fill:#ffb89b;fill-opacity:1;stroke-linejoin:miter"
       id="g259">
      <path
         d="m 467.48425,761.0055 q 2.94235,-0.0453 4.5763,2.3271 1.55505,2.8634 -0.17618,4.6927 -0.74649,0.77133 -2.30579,1.3989 -6.50012,1.94006 -6.98385,2.32434 -1.66416,0.76396 -3.15848,1.95562 -2.25858,1.80561 -4.68235,4.69178 -1.3125,1.34866 -6.13128,8.60886 -1.35657,1.7628 -3.13309,3.34597 -1.28836,1.14153 -3.07809,2.44663 -10.02544,6.8935 -11.00354,7.88235 -3.74448,3.09369 -6.75098,6.7771 l -4.27234,1.02725 q -4.54008,-0.486 -6.38443,-2.1073 -1.9516,-1.6597 -3.11383,-5.9728 -2.57785,-10.00007 3.17676,-15.35194 1.33442,-1.35396 3.28592,-2.8031 l 8.99783,-6.30121 q 2.21894,-1.5072 6.10721,-3.26062 10.06246,-4.78093 17.94886,-3.90813 12.84387,-7.9232 17.0023,-7.77094 z"
         id="path257" />
    </g>
    <g
       style="fill:#000000;fill-opacity:1;stroke-linejoin:miter"
       id="g263">
      <path
         d="m 289.69473,1246.6804 33.41074,2.7617 q -1.94342,13.2481 -1.82895,18.4239 0.006,2.299 0.37823,4.7256 l 1.60655,8.1572 q 0.24798,2.0517 0.0813,3.7336 -0.7276,7.8985 -9.92042,9.1304 -4.32006,1.1916 -29.40758,0.7161 -5.14496,2e-4 -6.39459,-1.6973 -2.26653,-2.6008 -0.138,-11.7388 0.67794,-2.5388 1.47305,-3.9282 0.37222,-0.6653 0.84936,-1.2346 l 2.19892,-2.259 q 0.52792,-0.5872 1.0635,-1.4266 1.28,-2.0312 2.65974,-5.8662 2.91195,-7.9707 3.9653,-19.4687 z"
         id="path261" />
    </g>
    <g
       style="fill:#000000;fill-opacity:1;stroke-linejoin:miter"
       id="g267">
      <path
         d="m 216.62314,1235.4683 50.68786,4.7556 q 1.69672,5.9301 1.80182,12.7698 0.28244,2.2643 -1.03714,26.3718 l -29.74031,1.7173 -5.70287,-4.7913 q -5.05578,0.9304 -9.38676,2.0007 -21.63554,5.9317 -25.15887,6.4358 -9.43397,1.9221 -17.01535,1.9956 -19.00156,-0.3437 -28.12309,-6.4001 -3.64072,-3.2388 2.29031,-6.3291 2.23093,-1.1253 5.59808,-1.9658 1.25708,-0.3941 10.86104,-2.114 2.31581,-0.4844 3.64705,-0.9012 3.16529,-0.9233 6.1002,-3.0056 l 35.10407,-30.4741 z"
         id="path265" />
    </g>
    <g
       style="fill:#000000;fill-opacity:1;stroke-linejoin:miter"
       id="g271">
      <path
         d="m 585.7296,686.2106 16.8008,10e-4 16.8008,10e-4 q 0,295.08106 0,590.1619 -16.8008,0 -33.6016,0 0,-295.08304 0,-590.1662"
         id="path269" />
    </g>
    <g
       style="fill:#000000;fill-opacity:1;stroke-linejoin:miter"
       id="g275">
      <path
         d="m 555.36194,1105.6163 47.16846,10e-4 h 47.1685 q 0,86.8319 0,173.6638 -47.1685,0 -94.33696,0 0,-86.8339 0,-173.6679"
         id="path273" />
    </g>
    <g
       style="fill:#000000;fill-opacity:1;stroke-linejoin:miter"
       id="g279">
      <path
         d="m 540.73804,1158.0657 61.79236,6e-4 61.7924,5e-4 q 0,61.7918 0,123.5837 -61.7924,4e-4 -123.58476,7e-4 0,-61.7927 0,-123.5855"
         id="path277" />
    </g>
    <g
       style="fill:#000000;fill-opacity:1;stroke-linejoin:miter"
       id="g283">
      <path
         d="m 594.47424,206.27232 8.05616,8.3e-4 8.0563,7.9e-4 V 744.0771 q -8.0563,8e-4 -16.11246,0.002 0,-268.9032 0,-537.80638"
         id="path281" />
    </g>
    <g
       id="g297">
      <g
         style="fill:#ffffff;fill-opacity:1;stroke-linejoin:miter"
         id="g287">
        <path
           d="m 635.68243,220.34685 161.13887,-1.02655 16.88134,33.08189 -16.45654,33.59461 -161.1386,1.02783 16.4569,-33.47907 c 0,6.1e-4 -16.88197,-33.19871 -16.88197,-33.19871 z"
           id="path285" />
      </g>
      <g
         style="fill:#ffffff;fill-opacity:1;stroke-linejoin:miter"
         id="g291">
        <path
           d="m 584.6245,243.7181 47.45185,3.9e-4 47.45205,3.7e-4 q 0,10.34984 0,20.69964 -47.45205,3e-4 -94.9039,7e-4 0,-10.35057 0,-20.7011"
           id="path289" />
      </g>
      <g
         style="fill:#ffffff;fill-opacity:1;stroke-linejoin:miter"
         id="g295">
        <path
           d="m 591.0951,241.94438 12.38573,1.5e-4 12.38563,1.3e-4 q 0,13.16786 0,26.33574 -12.38563,1.5e-4 -24.77136,3e-4 0,-13.16818 0,-26.33632"
           id="path293" />
      </g>
    </g>
    <g
       id="g311">
      <g
         style="fill:#ffffff;fill-opacity:1;stroke-linejoin:miter"
         id="g301">
        <path
           d="m 570.2678,297.80734 -161.1391,-1.02654 -16.8812,33.08193 16.45657,33.59455 161.13873,1.02789 -16.45706,-33.47913 c 0,6.4e-4 16.88206,-33.1987 16.88206,-33.1987 z"
           id="path299" />
      </g>
      <g
         style="fill:#ffffff;fill-opacity:1;stroke-linejoin:miter"
         id="g305">
        <path
           d="m 621.32556,321.17862 -47.45176,4e-4 -47.45186,3.8e-4 q 0,10.34984 0,20.6996 47.45186,3.6e-4 94.90362,7.3e-4 0,-10.35056 0,-20.70111"
           id="path303" />
      </g>
      <g
         style="fill:#ffffff;fill-opacity:1;stroke-linejoin:miter"
         id="g309">
        <path
           d="m 614.8551,319.40488 -12.38586,1.8e-4 -12.38564,1.4e-4 q 0,13.1679 0,26.33574 12.38564,1.8e-4 24.7715,3e-4 0,-13.16814 0,-26.33636"
           id="path307" />
      </g>
    </g>
    <g
       id="g325">
      <g
         style="fill:#ffffff;fill-opacity:1;stroke-linejoin:miter"
         id="g315">
        <path
           d="m 635.3117,392.1383 161.1391,-1.0266 16.88123,33.08193 -16.45653,33.59461 -161.13874,1.02783 16.45714,-33.47909 c 0,6.7e-4 -16.8822,-33.19868 -16.8822,-33.19868 z"
           id="path313" />
      </g>
      <g
         style="fill:#ffffff;fill-opacity:1;stroke-linejoin:miter"
         id="g319">
        <path
           d="m 584.254,415.50955 47.45175,3.7e-4 47.4519,3.8e-4 q 0,10.3498 0,20.69963 -47.4519,3.4e-4 -94.90365,7e-4 0,-10.35055 0,-20.70108"
           id="path317" />
      </g>
      <g
         style="fill:#ffffff;fill-opacity:1;stroke-linejoin:miter"
         id="g323">
        <path
           d="m 590.7245,413.7358 12.3856,1.3e-4 12.3859,1.7e-4 q 0,13.16786 0,26.33577 -12.3859,1.5e-4 -24.7715,2.7e-4 0,-13.16818 0,-26.33634"
           id="path321" />
      </g>
    </g>
    <g
       id="g339">
      <g
         style="fill:#ffffff;fill-opacity:1;stroke-linejoin:miter"
         id="g329">
        <path
           d="m 570.94385,477.035 -161.13925,-1.0266 -16.88126,33.082 16.45656,33.5945 161.1389,1.0278 -16.45703,-33.479 c 0,6e-4 16.88208,-33.1987 16.88208,-33.1987 z"
           id="path327" />
      </g>
      <g
         style="fill:#ffffff;fill-opacity:1;stroke-linejoin:miter"
         id="g333">
        <path
           d="m 622.00146,500.40622 -47.45166,4.3e-4 -47.45196,3.5e-4 q 0,10.34977 0,20.69957 47.45196,3.6e-4 94.90362,7.3e-4 0,-10.35053 0,-20.70108"
           id="path331" />
      </g>
      <g
         style="fill:#ffffff;fill-opacity:1;stroke-linejoin:miter"
         id="g337">
        <path
           d="m 615.531,498.63248 -12.38574,1.8e-4 -12.38576,1.2e-4 q 0,13.16794 0,26.33572 12.38576,2e-4 24.7715,2.5e-4 0,-13.16803 0,-26.33627"
           id="path335" />
      </g>
    </g>
    <g
       id="g345">
      <g
         style="fill:#ffffff;fill-opacity:1;stroke-linejoin:miter"
         id="g343">
        <path
           d="m 144.40508,416.56546 q -0.53663,0.10484 -1.07894,0.21698 -9.31105,1.92639 -16.4292,5.46503 -7.15925,3.34033 -12.80188,8.01977 -5.48552,4.44036 -9.57752,9.62519 -4.09196,5.1849 -7.26854,10.80014 l 17.22842,13.37579 q 2.94426,-4.74091 6.01155,-8.88739 3.10826,-3.94861 6.97478,-7.22757 3.66841,-3.23798 8.73039,-5.73132 4.90486,-2.25428 11.64052,-3.64786 0.36552,-0.0758 0.72633,-0.14622 8.04962,-1.57204 13.79016,-0.5846 5.99789,1.0316 10.02147,3.50447 3.82547,2.51393 5.71095,5.63593 1.88538,3.12176 2.4182,5.69723 1.2706,6.14137 0.43033,11.06671 -0.88129,4.72711 -3.51132,8.98981 -2.47297,4.02368 -6.65372,7.78088 -4.1808,3.7572 -9.5912,7.56214 -4.65891,3.44299 -7.41197,7.11126 -2.59594,3.42939 -3.83924,7.40517 -1.08619,3.73656 -1.09988,7.6646 0.14343,3.68896 0.92221,7.453 0.7787,3.76385 1.99464,7.6441 1.17496,3.682 2.34995,7.3641 l 13.86746,-2.86904 q -1.27055,-6.14136 -1.05881,-10.11041 0.0138,-3.92765 1.30489,-6.67401 1.09305,-2.70514 3.14244,-4.78186 2.09035,-1.87848 4.69308,-4.27631 8.95591,-7.63733 14.86497,-14.02447 5.71096,-6.34638 8.72366,-12.7541 3.05357,-6.20953 3.68214,-13.15686 0.4304,-6.90637 -1.41397,-15.82138 -1.22961,-5.94314 -5.12341,-12.78126 -3.65471,-6.68096 -10.71143,-11.8319 -6.85856,-5.19165 -17.46753,-7.54168 -10.21652,-2.26316 -24.18998,0.46594 z M 165.43536,549.796 q -0.0804,0.0158 -0.16111,0.0324 -4.95265,1.02483 -7.58274,5.28753 -2.67109,4.0645 -1.64639,9.01716 1.02461,4.95264 5.0892,7.62378 3.95406,2.43016 8.80528,1.4826 0.0854,-0.0166 0.17104,-0.0343 4.95271,-1.02464 7.82187,-5.13034 2.71207,-3.8665 1.68744,-8.8192 -1.02474,-4.95256 -5.3284,-7.78075 -3.99837,-2.6275 -8.85619,-1.67885 z"
           id="path341" />
      </g>
    </g>
    <g
       style="fill:#000000;fill-opacity:1;stroke-linejoin:miter"
       id="g349">
      <path
         d="m -62.99438,1127.9734 103.98446,7e-4 103.98447,6e-4 q 0,76.7283 0,153.4568 -103.984483,6e-4 -207.968965,0 1.9e-5,-76.7299 3.5e-5,-153.4596"
         id="path347" />
    </g>
    <g
       style="fill:#000000;fill-opacity:1;stroke-linejoin:miter"
       id="g353">
      <path
         d="m 13.547314,1102.6481 v 0 l 60.584826,9e-4 c 4.336206,0 7.851365,3.5152 7.851365,7.8516 v 0 40.9811 c 0,4.3362 -3.515159,7.8513 -7.851365,7.8516 v 0 l -60.584826,9e-4 c -2.082371,0 -4.07946,-0.8271 -5.5519336,-2.2997 -1.4724694,-1.4724 -2.2996979,-3.4694 -2.2996979,-5.5517 v 0 -40.9833 c 0,-2.0823 0.8272285,-4.0793 2.2996979,-5.5519 1.4724736,-1.4724 3.4695626,-2.2995 5.5519336,-2.2995 v 0 m -2.67e-4,15.703 7.851638,-7.8516 v 40.9833 l -7.851638,-7.8516 60.584813,-10e-4 -7.851365,7.8515 v -40.9811 l 7.851365,7.8516 z"
         id="path351" />
    </g>
  </g>
</svg>
