<?xml version="1.0" encoding="UTF-8" standalone="no"?>
<!-- Generator: Adobe Illustrator 22.1.0, SVG Export Plug-In . SVG Version: 6.00 Build 0)  -->

<svg
   version="1.1"
   id="Layer_1"
   x="0px"
   y="0px"
   viewBox="0 0 500 500"
   style="enable-background:new 0 0 500 500"
   xml:space="preserve"
   sodipodi:docname="thing.svg"
   inkscape:version="1.2.2 (b0a8486541, 2022-12-01, custom)"
   xmlns:inkscape="http://www.inkscape.org/namespaces/inkscape"
   xmlns:sodipodi="http://sodipodi.sourceforge.net/DTD/sodipodi-0.dtd"
   xmlns="http://www.w3.org/2000/svg"
   xmlns:svg="http://www.w3.org/2000/svg"><defs
   id="defs504" /><sodipodi:namedview
   id="namedview502"
   pagecolor="#ffffff"
   bordercolor="#666666"
   borderopacity="1.0"
   inkscape:showpageshadow="2"
   inkscape:pageopacity="0.0"
   inkscape:pagecheckerboard="0"
   inkscape:deskcolor="#d1d1d1"
   showgrid="false"
   inkscape:zoom="1.094"
   inkscape:cx="249.54296"
   inkscape:cy="250"
   inkscape:window-width="1600"
   inkscape:window-height="792"
   inkscape:window-x="0"
   inkscape:window-y="27"
   inkscape:window-maximized="1"
   inkscape:current-layer="Layer_1" />
<style
   type="text/css"
   id="style25">
	.st0{fill:#DBC81B;}
	.st1{fill:#292B37;}
	.st2{fill:#DAE8F3;}
	.st3{fill:#3F434F;}
	.st4{fill:#FDFEFF;}
	.st5{fill:#D8D3B6;}
	.st6{fill:#C4BC95;}
	.st7{fill:#FFFFFF;}
	.st8{fill:#19B2B8;}
	.st9{fill:#C0D4D3;}
	.st10{fill:#2B5E76;}
	.st11{fill:#F06443;}
	.st12{opacity:0.1;}
	.st13{fill:#FEFEFF;}
</style>
<rect
   x="-732.90363"
   class="st0"
   width="500"
   height="500"
   id="rect27"
   y="-6.4124293" />
<g
   id="g499"
   transform="matrix(1.2745968,0,0,1.2745968,-63.194202,-71.254142)">
	<path
   class="st1"
   d="M 404.6,394.9 H 88.4 c -2,0 -3.7,-1.7 -3.7,-3.7 v 0 c 0,-2 1.7,-3.7 3.7,-3.7 h 316.1 c 2,0 3.7,1.7 3.7,3.7 v 0 c 0,2 -1.6,3.7 -3.6,3.7 z"
   id="path29" />
	<path
   class="st2"
   d="M 404.1,391 H 88.9 c -3.2,0 -4.9,-1.3 -3.8,-2.9 l 44.4,-63.9 h 233.9 l 44.4,63.9 c 1.2,1.5 -0.5,2.9 -3.7,2.9 z"
   id="path31" />
	<path
   class="st3"
   d="M 279.9,385.8 H 213 c -1.9,0 -3.2,-0.7 -3.1,-1.7 l 2.2,-14 c 0.1,-0.8 1.6,-1.4 3.3,-1.4 h 61.9 c 1.7,0 3.2,0.6 3.3,1.4 l 2.2,14 c 0.4,1 -1,1.7 -2.9,1.7 z"
   id="path33" />
	<g
   id="g59">
		<polygon
   class="st4"
   points="149.5,327.3 162.8,327.3 161.7,329.7 148.1,329.7 "
   id="polygon35" />
		<polygon
   class="st4"
   points="165.8,327.3 179.2,327.3 178.3,329.7 164.7,329.7 "
   id="polygon37" />
		<polygon
   class="st4"
   points="182.2,327.3 195.6,327.3 194.9,329.7 181.3,329.7 "
   id="polygon39" />
		<polygon
   class="st4"
   points="198.6,327.3 211.9,327.3 211.4,329.7 197.9,329.7 "
   id="polygon41" />
		<polygon
   class="st4"
   points="214.9,327.3 228.3,327.3 228,329.7 214.5,329.7 "
   id="polygon43" />
		<polygon
   class="st4"
   points="231.3,327.3 244.7,327.3 244.6,329.7 231.1,329.7 "
   id="polygon45" />
		<polygon
   class="st4"
   points="247.7,327.3 261,327.3 261.2,329.7 247.7,329.7 "
   id="polygon47" />
		<polygon
   class="st4"
   points="264,327.3 277.4,327.3 277.8,329.7 264.3,329.7 "
   id="polygon49" />
		<polygon
   class="st4"
   points="280.4,327.3 293.8,327.3 294.4,329.7 280.9,329.7 "
   id="polygon51" />
		<polygon
   class="st4"
   points="296.8,327.3 310.1,327.3 311,329.7 297.5,329.7 "
   id="polygon53" />
		<polygon
   class="st4"
   points="313.1,327.3 326.5,327.3 327.6,329.7 314.1,329.7 "
   id="polygon55" />
		<polygon
   class="st4"
   points="330.1,327.3 343.5,327.3 344.8,329.7 331.3,329.7 "
   id="polygon57" />
	</g>
	<path
   class="st1"
   d="M 356.1,181.9 H 136.9 c -4,0 -7.2,3.3 -7.2,7.3 v 135 h 233.6 v -135 c 0,-4.1 -3.2,-7.3 -7.2,-7.3 z"
   id="path61" />
	<rect
   x="139.5"
   y="193.7"
   class="st4"
   width="214.10001"
   height="117.7"
   id="rect63" />
	<g
   id="g101">
		<g
   id="g81">
			<polygon
   class="st3"
   points="132.6,357.1 148.3,357.1 144.7,364.4 128.4,364.4 "
   id="polygon65" />
			<polygon
   class="st3"
   points="151.8,357.1 167.5,357.1 164.6,364.4 148.3,364.4 "
   id="polygon67" />
			<polygon
   class="st3"
   points="171,357.1 186.7,357.1 184.5,364.4 168.3,364.4 "
   id="polygon69" />
			<polygon
   class="st3"
   points="305.6,357.1 321.3,357.1 324,364.4 307.7,364.4 "
   id="polygon71" />
			<polygon
   class="st3"
   points="286.4,357.1 302,357.1 304.1,364.4 287.8,364.4 "
   id="polygon73" />
			<polygon
   class="st3"
   points="190.2,357.1 282.8,357.1 284.1,364.4 188.2,364.4 "
   id="polygon75" />
			<polygon
   class="st3"
   points="324.8,357.1 340.5,357.1 343.9,364.4 327.7,364.4 "
   id="polygon77" />
			<polygon
   class="st3"
   points="344.8,357.1 360.4,357.1 364.6,364.4 348.3,364.4 "
   id="polygon79" />
		</g>
		<g
   id="g99">
			<polygon
   class="st3"
   points="132.3,357.6 148,357.6 144.4,365 128.1,365 "
   id="polygon83" />
			<polygon
   class="st3"
   points="151.5,357.6 167.3,357.6 164.4,365 148.1,365 "
   id="polygon85" />
			<polygon
   class="st3"
   points="170.8,357.6 186.5,357.6 184.3,365 168,365 "
   id="polygon87" />
			<polygon
   class="st3"
   points="305.7,357.6 321.5,357.6 324.2,365 307.9,365 "
   id="polygon89" />
			<polygon
   class="st3"
   points="286.5,357.6 302.2,357.6 304.2,365 287.9,365 "
   id="polygon91" />
			<polygon
   class="st3"
   points="190.1,357.6 282.9,357.6 284.3,365 188,365 "
   id="polygon93" />
			<polygon
   class="st3"
   points="325,357.6 340.7,357.6 344.2,365 327.9,365 "
   id="polygon95" />
			<polygon
   class="st3"
   points="345,357.6 360.7,357.6 364.9,365 348.6,365 "
   id="polygon97" />
		</g>
	</g>
	<g
   id="g171">
		<g
   id="g135">
			<g
   id="g105">
				<polygon
   class="st3"
   points="137.8,348.1 189.4,348.1 187.4,354.8 134,354.8 "
   id="polygon103" />
			</g>
			<g
   id="g109">
				<polygon
   class="st3"
   points="192.8,348.1 207.7,348.1 206.4,354.8 190.9,354.8 "
   id="polygon107" />
			</g>
			<g
   id="g113">
				<polygon
   class="st3"
   points="211.1,348.1 226.1,348.1 225.4,354.8 209.9,354.8 "
   id="polygon111" />
			</g>
			<g
   id="g117">
				<polygon
   class="st3"
   points="229.5,348.1 244.5,348.1 244.4,354.8 228.9,354.8 "
   id="polygon115" />
			</g>
			<g
   id="g121">
				<polygon
   class="st3"
   points="247.9,348.1 262.8,348.1 263.4,354.8 247.9,354.8 "
   id="polygon119" />
			</g>
			<g
   id="g125">
				<polygon
   class="st3"
   points="266.2,348.1 281.2,348.1 282.4,354.8 266.9,354.8 "
   id="polygon123" />
			</g>
			<g
   id="g129">
				<polygon
   class="st3"
   points="284.6,348.1 299.6,348.1 301.4,354.8 285.9,354.8 "
   id="polygon127" />
			</g>
			<g
   id="g133">
				<polygon
   class="st3"
   points="302.9,348.1 355.3,348.1 359.1,354.8 304.9,354.8 "
   id="polygon131" />
			</g>
		</g>
		<g
   id="g169">
			<g
   id="g139">
				<polygon
   class="st3"
   points="137.5,348.6 189.2,348.6 187.2,355.3 133.7,355.3 "
   id="polygon137" />
			</g>
			<g
   id="g143">
				<polygon
   class="st3"
   points="192.6,348.6 207.6,348.6 206.2,355.3 190.7,355.3 "
   id="polygon141" />
			</g>
			<g
   id="g147">
				<polygon
   class="st3"
   points="211,348.6 226,348.6 225.3,355.3 209.7,355.3 "
   id="polygon145" />
			</g>
			<g
   id="g151">
				<polygon
   class="st3"
   points="229.4,348.6 244.4,348.6 244.4,355.3 228.8,355.3 "
   id="polygon149" />
			</g>
			<g
   id="g155">
				<polygon
   class="st3"
   points="247.8,348.6 262.8,348.6 263.4,355.3 247.9,355.3 "
   id="polygon153" />
			</g>
			<g
   id="g159">
				<polygon
   class="st3"
   points="266.2,348.6 281.2,348.6 282.5,355.3 266.9,355.3 "
   id="polygon157" />
			</g>
			<g
   id="g163">
				<polygon
   class="st3"
   points="284.6,348.6 299.7,348.6 301.5,355.3 286,355.3 "
   id="polygon161" />
			</g>
			<g
   id="g167">
				<polygon
   class="st3"
   points="303.1,348.6 355.5,348.6 359.3,355.3 305,355.3 "
   id="polygon165" />
			</g>
		</g>
	</g>
	<g
   id="g273">
		<g
   id="g221">
			<g
   id="g175">
				<polygon
   class="st3"
   points="146.6,332.4 160.3,332.4 157.6,338 143.4,338 "
   id="polygon173" />
			</g>
			<g
   id="g179">
				<polygon
   class="st3"
   points="163.4,332.4 177.2,332.4 175,338 160.8,338 "
   id="polygon177" />
			</g>
			<g
   id="g183">
				<polygon
   class="st3"
   points="180.3,332.4 194.1,332.4 192.4,338 178.2,338 "
   id="polygon181" />
			</g>
			<g
   id="g187">
				<polygon
   class="st3"
   points="197.2,332.4 210.9,332.4 209.8,338 195.6,338 "
   id="polygon185" />
			</g>
			<g
   id="g191">
				<polygon
   class="st3"
   points="214,332.4 227.8,332.4 227.2,338 213,338 "
   id="polygon189" />
			</g>
			<g
   id="g195">
				<polygon
   class="st3"
   points="230.9,332.4 244.6,332.4 244.6,338 230.4,338 "
   id="polygon193" />
			</g>
			<g
   id="g199">
				<polygon
   class="st3"
   points="247.7,332.4 261.5,332.4 262,338 247.8,338 "
   id="polygon197" />
			</g>
			<g
   id="g203">
				<polygon
   class="st3"
   points="264.6,332.4 278.4,332.4 279.4,338 265.2,338 "
   id="polygon201" />
			</g>
			<g
   id="g207">
				<polygon
   class="st3"
   points="281.5,332.4 295.2,332.4 296.8,338 282.6,338 "
   id="polygon205" />
			</g>
			<g
   id="g211">
				<polygon
   class="st3"
   points="298.3,332.4 312.1,332.4 314.2,338 300,338 "
   id="polygon209" />
			</g>
			<g
   id="g215">
				<polygon
   class="st3"
   points="315.2,332.4 328.9,332.4 331.6,338 317.4,338 "
   id="polygon213" />
			</g>
			<g
   id="g219">
				<polygon
   class="st3"
   points="332.7,332.4 346.4,332.4 349.6,338 335.4,338 "
   id="polygon217" />
			</g>
		</g>
		<g
   id="g271">
			<g
   id="g225">
				<polygon
   class="st3"
   points="146.3,332.8 160.1,332.8 157.4,338.4 143.1,338.4 "
   id="polygon223" />
			</g>
			<g
   id="g229">
				<polygon
   class="st3"
   points="163.2,332.8 177,332.8 174.8,338.4 160.6,338.4 "
   id="polygon227" />
			</g>
			<g
   id="g233">
				<polygon
   class="st3"
   points="180.1,332.8 193.9,332.8 192.3,338.4 178,338.4 "
   id="polygon231" />
			</g>
			<g
   id="g237">
				<polygon
   class="st3"
   points="197,332.8 210.8,332.8 209.7,338.4 195.5,338.4 "
   id="polygon235" />
			</g>
			<g
   id="g241">
				<polygon
   class="st3"
   points="213.9,332.8 227.7,332.8 227.1,338.4 212.9,338.4 "
   id="polygon239" />
			</g>
			<g
   id="g245">
				<polygon
   class="st3"
   points="230.8,332.8 244.6,332.8 244.6,338.4 230.3,338.4 "
   id="polygon243" />
			</g>
			<g
   id="g249">
				<polygon
   class="st3"
   points="247.7,332.8 261.5,332.8 262,338.4 247.8,338.4 "
   id="polygon247" />
			</g>
			<g
   id="g253">
				<polygon
   class="st3"
   points="264.6,332.8 278.4,332.8 279.5,338.4 265.2,338.4 "
   id="polygon251" />
			</g>
			<g
   id="g257">
				<polygon
   class="st3"
   points="281.5,332.8 295.3,332.8 296.9,338.4 282.7,338.4 "
   id="polygon255" />
			</g>
			<g
   id="g261">
				<polygon
   class="st3"
   points="298.4,332.8 312.2,332.8 314.3,338.4 300.1,338.4 "
   id="polygon259" />
			</g>
			<g
   id="g265">
				<polygon
   class="st3"
   points="315.3,332.8 329.1,332.8 331.8,338.4 317.5,338.4 "
   id="polygon263" />
			</g>
			<g
   id="g269">
				<polygon
   class="st3"
   points="332.9,332.8 346.7,332.8 349.9,338.4 335.6,338.4 "
   id="polygon267" />
			</g>
		</g>
	</g>
	<g
   id="g359">
		<g
   id="g315">
			<g
   id="g277">
				<polygon
   class="st3"
   points="142.3,339.9 173.4,339.9 171,346 138.8,346 "
   id="polygon275" />
			</g>
			<g
   id="g281">
				<polygon
   class="st3"
   points="177.5,339.9 191.8,339.9 190,346 175.2,346 "
   id="polygon279" />
			</g>
			<g
   id="g285">
				<polygon
   class="st3"
   points="195.1,339.9 209.4,339.9 208.2,346 193.3,346 "
   id="polygon283" />
			</g>
			<g
   id="g289">
				<polygon
   class="st3"
   points="212.6,339.9 227,339.9 226.3,346 211.5,346 "
   id="polygon287" />
			</g>
			<g
   id="g293">
				<polygon
   class="st3"
   points="230.2,339.9 244.6,339.9 244.5,346 229.7,346 "
   id="polygon291" />
			</g>
			<g
   id="g297">
				<polygon
   class="st3"
   points="247.8,339.9 262.1,339.9 262.7,346 247.8,346 "
   id="polygon295" />
			</g>
			<g
   id="g301">
				<polygon
   class="st3"
   points="265.4,339.9 279.7,339.9 280.8,346 266,346 "
   id="polygon299" />
			</g>
			<g
   id="g305">
				<polygon
   class="st3"
   points="283,339.9 297.3,339.9 299,346 284.2,346 "
   id="polygon303" />
			</g>
			<g
   id="g309">
				<polygon
   class="st3"
   points="300.5,339.9 314.9,339.9 317.2,346 302.3,346 "
   id="polygon307" />
			</g>
			<g
   id="g313">
				<polygon
   class="st3"
   points="318.1,339.9 350.7,339.9 354.2,346 320.5,346 "
   id="polygon311" />
			</g>
		</g>
		<g
   id="g357">
			<g
   id="g319">
				<polygon
   class="st3"
   points="142.1,340.4 173.2,340.4 170.8,346.5 138.6,346.5 "
   id="polygon317" />
			</g>
			<g
   id="g323">
				<polygon
   class="st3"
   points="177.3,340.4 191.7,340.4 189.8,346.5 175,346.5 "
   id="polygon321" />
			</g>
			<g
   id="g327">
				<polygon
   class="st3"
   points="194.9,340.4 209.3,340.4 208.1,346.5 193.2,346.5 "
   id="polygon325" />
			</g>
			<g
   id="g331">
				<polygon
   class="st3"
   points="212.5,340.4 226.9,340.4 226.3,346.5 211.4,346.5 "
   id="polygon329" />
			</g>
			<g
   id="g335">
				<polygon
   class="st3"
   points="230.2,340.4 244.6,340.4 244.5,346.5 229.6,346.5 "
   id="polygon333" />
			</g>
			<g
   id="g339">
				<polygon
   class="st3"
   points="247.8,340.4 262.2,340.4 262.7,346.5 247.8,346.5 "
   id="polygon337" />
			</g>
			<g
   id="g343">
				<polygon
   class="st3"
   points="265.4,340.4 279.8,340.4 280.9,346.5 266.1,346.5 "
   id="polygon341" />
			</g>
			<g
   id="g347">
				<polygon
   class="st3"
   points="283,340.4 297.4,340.4 299.1,346.5 284.3,346.5 "
   id="polygon345" />
			</g>
			<g
   id="g351">
				<polygon
   class="st3"
   points="300.7,340.4 315,340.4 317.3,346.5 302.5,346.5 "
   id="polygon349" />
			</g>
			<g
   id="g355">
				<polygon
   class="st3"
   points="318.3,340.4 351,340.4 354.4,346.5 320.7,346.5 "
   id="polygon353" />
			</g>
		</g>
	</g>
	<g
   id="g385">
		<polygon
   class="st3"
   points="149.3,327.6 162.7,327.6 161.5,330.1 147.9,330.1 "
   id="polygon361" />
		<polygon
   class="st3"
   points="165.7,327.6 179.1,327.6 178.1,330.1 164.5,330.1 "
   id="polygon363" />
		<polygon
   class="st3"
   points="182.1,327.6 195.5,327.6 194.8,330.1 181.2,330.1 "
   id="polygon365" />
		<polygon
   class="st3"
   points="198.5,327.6 211.9,327.6 211.4,330.1 197.8,330.1 "
   id="polygon367" />
		<polygon
   class="st3"
   points="214.9,327.6 228.3,327.6 228,330.1 214.5,330.1 "
   id="polygon369" />
		<polygon
   class="st3"
   points="231.3,327.6 244.7,327.6 244.7,330.1 231.1,330.1 "
   id="polygon371" />
		<polygon
   class="st3"
   points="247.7,327.6 261.1,327.6 261.3,330.1 247.7,330.1 "
   id="polygon373" />
		<polygon
   class="st3"
   points="264.1,327.6 277.5,327.6 277.9,330.1 264.4,330.1 "
   id="polygon375" />
		<polygon
   class="st3"
   points="280.5,327.6 293.9,327.6 294.6,330.1 281,330.1 "
   id="polygon377" />
		<polygon
   class="st3"
   points="296.9,327.6 310.3,327.6 311.2,330.1 297.6,330.1 "
   id="polygon379" />
		<polygon
   class="st3"
   points="313.3,327.6 326.7,327.6 327.8,330.1 314.3,330.1 "
   id="polygon381" />
		<polygon
   class="st3"
   points="330.3,327.6 343.7,327.6 345.1,330.1 331.5,330.1 "
   id="polygon383" />
	</g>
	<g
   id="g391">
		<rect
   x="327"
   y="320.70001"
   class="st4"
   width="23.200001"
   height="4.1999998"
   id="rect387" />
		<rect
   x="142.7"
   y="320.70001"
   class="st4"
   width="23.200001"
   height="4.1999998"
   id="rect389" />
	</g>
	<rect
   x="139.5"
   y="193.7"
   class="st5"
   width="214.10001"
   height="117.7"
   id="rect393" />
	<rect
   x="173.8"
   y="193.60001"
   class="st6"
   width="155"
   height="112"
   id="rect395" />
	<rect
   x="168.10001"
   y="153.39999"
   class="st7"
   width="154.8"
   height="147.39999"
   id="rect397" />
	<rect
   x="176.3"
   y="178.8"
   class="st8"
   width="138.3"
   height="114.4"
   id="rect399" />
	<rect
   x="218.89999"
   y="161.2"
   class="st9"
   width="95.699997"
   height="8"
   id="rect401" />
	
		<circle
   transform="matrix(0.1602,-0.9871,0.9871,0.1602,-11.4469,317.1548)"
   class="st9"
   cx="180.7"
   cy="165.3"
   id="ellipse403"
   r="4.0999999" />
	
		<circle
   transform="matrix(0.2298,-0.9732,0.9732,0.2298,-12.6191,314.9269)"
   class="st9"
   cx="192.7"
   cy="165.39999"
   id="ellipse405"
   r="4.0999999" />
	
		<circle
   transform="matrix(0.7071,-0.7071,0.7071,0.7071,-57.1343,193.2001)"
   class="st9"
   cx="204.60001"
   cy="165.60001"
   id="ellipse407"
   r="4.0999999" />
	<circle
   class="st10"
   cx="202.7"
   cy="207.7"
   r="18.799999"
   id="circle409" />
	<path
   class="st7"
   d="m 208.6,200 c 0,0.1 0,0.2 0,0.3 0,0.1 0,0.2 0,0.3 0,0.2 0,0.3 -0.1,0.5 0,0.2 -0.1,0.3 -0.1,0.5 -0.1,0.3 -0.2,0.6 -0.3,0.9 0,0 0,0.1 -0.1,0.1 -0.1,0.1 -0.1,0.3 -0.2,0.4 0,0 0,0.1 -0.1,0.1 -0.3,0.5 -0.6,0.9 -1,1.3 0,0 -0.1,0.1 -0.1,0.1 -0.1,0.1 -0.1,0.1 -0.2,0.2 0,0 -0.1,0.1 -0.1,0.1 -0.1,0.1 -0.2,0.2 -0.3,0.2 0,0 0,0 0,0 -0.1,0.1 -0.3,0.2 -0.4,0.3 -0.1,0.1 -0.3,0.1 -0.4,0.2 0,0 0,0 0,0 -0.3,0.1 -0.6,0.2 -0.9,0.3 -0.1,0 -0.1,0 -0.2,0.1 -0.3,0.1 -0.6,0.1 -1,0.1 -0.1,0 -0.2,0 -0.3,0 -0.1,0 -0.1,0 -0.2,0 -0.1,0 -0.1,0 -0.2,0 -0.1,0 -0.2,0 -0.3,0 -0.3,0 -0.6,-0.1 -1,-0.1 -0.1,0 -0.1,0 -0.2,-0.1 -0.3,-0.1 -0.6,-0.2 -0.9,-0.3 0,0 0,0 0,0 -0.1,-0.1 -0.3,-0.1 -0.4,-0.2 -0.2,-0.1 -0.3,-0.2 -0.5,-0.3 0,0 0,0 0,0 -0.1,-0.1 -0.2,-0.2 -0.3,-0.2 0,0 -0.1,-0.1 -0.1,-0.1 -0.1,-0.1 -0.1,-0.1 -0.2,-0.2 -0.1,-0.1 -0.1,-0.1 -0.2,-0.2 -0.4,-0.4 -0.7,-0.8 -0.9,-1.2 0,0 0,-0.1 -0.1,-0.1 -0.1,-0.1 -0.1,-0.3 -0.2,-0.4 0,0 0,-0.1 -0.1,-0.1 -0.1,-0.3 -0.2,-0.6 -0.3,-0.9 0,-0.2 -0.1,-0.3 -0.1,-0.5 0,-0.2 0,-0.3 -0.1,-0.5 0,-0.1 0,-0.2 0,-0.3 0,-0.1 0,-0.2 0,-0.3 0,-0.1 0,-0.2 0,-0.3 0,-0.1 0,-0.1 0,-0.2 v 0 c 0,0 0,-0.1 0,-0.1 0,0 0,-0.1 0,-0.1 0,-0.1 0,-0.2 0.1,-0.3 0,-0.2 0.1,-0.3 0.1,-0.5 0.1,-0.3 0.2,-0.6 0.3,-0.9 0,0 0,0 0,-0.1 0,0 0,0 0,-0.1 0.1,-0.1 0.1,-0.3 0.2,-0.4 0,0 0,-0.1 0.1,-0.1 0.3,-0.5 0.6,-0.9 1,-1.3 0,0 0.1,-0.1 0.1,-0.1 0.1,-0.1 0.1,-0.1 0.2,-0.2 0,0 0.1,-0.1 0.1,-0.1 0.1,-0.1 0.2,-0.2 0.3,-0.2 0,0 0,0 0,0 0.3,-0.2 0.6,-0.3 0.9,-0.5 0,0 0,0 0,0 0.3,-0.1 0.6,-0.2 0.9,-0.3 0.1,0 0.1,0 0.2,-0.1 0.3,-0.1 0.6,-0.1 1,-0.1 0.1,0 0.2,0 0.3,0 0.1,0 0.1,0 0.2,0 0.1,0 0.1,0 0.2,0 0.1,0 0.2,0 0.3,0 0.3,0 0.6,0.1 1,0.1 0.1,0 0.1,0 0.2,0.1 0.3,0.1 0.6,0.2 0.9,0.3 0,0 0,0 0,0 0.3,0.1 0.6,0.3 0.9,0.5 0,0 0,0 0,0 0.1,0.1 0.2,0.2 0.3,0.2 0,0 0.1,0.1 0.1,0.1 0.1,0.1 0.1,0.1 0.2,0.2 0,0 0.1,0.1 0.1,0.1 0.4,0.4 0.8,0.8 1,1.3 0,0 0,0.1 0.1,0.1 0.1,0.1 0.1,0.3 0.2,0.4 0,0 0,0.1 0.1,0.1 0.1,0.3 0.2,0.6 0.3,0.9 0,0.2 0.1,0.3 0.1,0.5 0,0.2 0,0.3 0.1,0.5 0,0 0,0.1 0,0.1 0,0.1 0,0.1 0,0.2 0,0 0,0.2 0,0.3 z"
   id="path411" />
	<path
   class="st7"
   d="m 213,211.7 v 6.4 c 0,0.1 -0.1,0.3 -0.2,0.3 h -20.1 c -0.1,0 -0.3,-0.1 -0.3,-0.3 v -6.4 c 0,-0.1 0,-0.2 0,-0.3 0.1,-1.5 0.7,-2.9 1.6,-3.9 0,0 0.1,-0.1 0.1,-0.1 0.5,-0.5 1,-0.9 1.6,-1.2 0,0 0.1,0 0.1,-0.1 0.2,-0.1 0.3,-0.2 0.5,-0.2 0,0 0.1,0 0.1,0 0.2,-0.1 0.3,-0.1 0.5,-0.1 0.2,0.2 0.4,0.4 0.6,0.5 0.6,0.4 1.2,0.8 1.8,1.1 0.1,0.1 0.2,0.1 0.4,0.2 0.5,0.2 1,0.3 1.4,0.4 0.5,0.1 1,0.1 1.5,0.1 0.6,0 1.1,-0.1 1.7,-0.2 0.1,0 0.1,0 0.2,0 v 0 c 0.1,-0.1 0.2,-0.1 0.3,-0.1 0,0 0,0 0,0 0.3,-0.1 0.5,-0.2 0.8,-0.3 0.1,0 0.2,-0.1 0.3,-0.1 0.5,-0.2 1,-0.5 1.4,-0.8 v 0 c 0,-0.1 0.1,-0.1 0.1,-0.1 0.3,-0.2 0.6,-0.5 0.8,-0.7 2.5,0.6 4.4,2.9 4.6,5.7 0.2,0 0.2,0.1 0.2,0.2 z"
   id="path413" />
	
		<circle
   transform="matrix(0.1602,-0.9871,0.9871,0.1602,-91.2706,422.6183)"
   class="st10"
   cx="202.7"
   cy="264.89999"
   id="ellipse415"
   r="18.799999" />
	<path
   class="st7"
   d="m 208.6,257.2 c 0,0.1 0,0.2 0,0.3 0,0.1 0,0.2 0,0.3 0,0.2 0,0.3 -0.1,0.5 0,0.2 -0.1,0.3 -0.1,0.5 -0.1,0.3 -0.2,0.6 -0.3,0.9 0,0 0,0.1 -0.1,0.1 -0.1,0.1 -0.1,0.3 -0.2,0.4 0,0 0,0.1 -0.1,0.1 -0.3,0.5 -0.6,0.9 -1,1.3 0,0 -0.1,0.1 -0.1,0.1 -0.1,0.1 -0.1,0.1 -0.2,0.2 0,0 -0.1,0.1 -0.1,0.1 -0.1,0.1 -0.2,0.2 -0.3,0.2 0,0 0,0 0,0 -0.1,0.1 -0.3,0.2 -0.4,0.3 -0.1,0.1 -0.3,0.1 -0.4,0.2 0,0 0,0 0,0 -0.3,0.1 -0.6,0.2 -0.9,0.3 -0.1,0 -0.1,0 -0.2,0.1 -0.3,0.1 -0.6,0.1 -1,0.1 -0.1,0 -0.2,0 -0.3,0 -0.1,0 -0.1,0 -0.2,0 -0.1,0 -0.1,0 -0.2,0 -0.1,0 -0.2,0 -0.3,0 -0.3,0 -0.6,-0.1 -1,-0.1 -0.1,0 -0.1,0 -0.2,-0.1 -0.3,-0.1 -0.6,-0.2 -0.9,-0.3 0,0 0,0 0,0 -0.1,-0.1 -0.3,-0.1 -0.4,-0.2 -0.2,-0.1 -0.3,-0.2 -0.5,-0.3 0,0 0,0 0,0 -0.1,-0.1 -0.2,-0.2 -0.3,-0.2 0,0 -0.1,-0.1 -0.1,-0.1 -0.1,-0.1 -0.1,-0.1 -0.2,-0.2 -0.1,-0.1 -0.1,-0.1 -0.2,-0.2 -0.4,-0.4 -0.7,-0.8 -0.9,-1.2 0,0 0,-0.1 -0.1,-0.1 -0.1,-0.1 -0.1,-0.3 -0.2,-0.4 0,0 0,-0.1 -0.1,-0.1 -0.1,-0.3 -0.2,-0.6 -0.3,-0.9 0,-0.2 -0.1,-0.3 -0.1,-0.5 0,-0.2 0,-0.3 -0.1,-0.5 0,-0.1 0,-0.2 0,-0.3 0,-0.1 0,-0.2 0,-0.3 0,-0.1 0,-0.2 0,-0.3 0,-0.1 0,-0.1 0,-0.2 v 0 c 0,0 0,-0.1 0,-0.1 0,0 0,-0.1 0,-0.1 0,-0.1 0,-0.2 0.1,-0.3 0,-0.2 0.1,-0.3 0.1,-0.5 0.1,-0.3 0.2,-0.6 0.3,-0.9 0,0 0,0 0,-0.1 0,0 0,0 0,-0.1 0.1,-0.1 0.1,-0.3 0.2,-0.4 0,0 0,-0.1 0.1,-0.1 0.3,-0.5 0.6,-0.9 1,-1.3 0,0 0.1,-0.1 0.1,-0.1 0.1,-0.1 0.1,-0.1 0.2,-0.2 0,0 0.1,-0.1 0.1,-0.1 0.1,-0.1 0.2,-0.2 0.3,-0.2 0,0 0,0 0,0 0.3,-0.2 0.6,-0.3 0.9,-0.5 0,0 0,0 0,0 0.3,-0.1 0.6,-0.2 0.9,-0.3 0.1,0 0.1,0 0.2,-0.1 0.3,-0.1 0.6,-0.1 1,-0.1 0.1,0 0.2,0 0.3,0 0.1,0 0.1,0 0.2,0 0.1,0 0.1,0 0.2,0 0.1,0 0.2,0 0.3,0 0.3,0 0.6,0.1 1,0.1 0.1,0 0.1,0 0.2,0.1 0.3,0.1 0.6,0.2 0.9,0.3 0,0 0,0 0,0 0.3,0.1 0.6,0.3 0.9,0.5 0,0 0,0 0,0 0.1,0.1 0.2,0.2 0.3,0.2 0,0 0.1,0.1 0.1,0.1 0.1,0.1 0.1,0.1 0.2,0.2 0,0 0.1,0.1 0.1,0.1 0.4,0.4 0.8,0.8 1,1.3 0,0 0,0.1 0.1,0.1 0.1,0.1 0.1,0.3 0.2,0.4 0,0 0,0.1 0.1,0.1 0.1,0.3 0.2,0.6 0.3,0.9 0,0.2 0.1,0.3 0.1,0.5 0,0.2 0,0.3 0.1,0.5 0,0 0,0.1 0,0.1 0,0.1 0,0.1 0,0.2 0,0.1 0,0.2 0,0.3 z"
   id="path417" />
	<path
   class="st7"
   d="m 213,269 v 6.4 c 0,0.1 -0.1,0.3 -0.2,0.3 h -20.1 c -0.1,0 -0.3,-0.1 -0.3,-0.3 V 269 c 0,-0.1 0,-0.2 0,-0.3 0.1,-1.5 0.7,-2.9 1.6,-3.9 0,0 0.1,-0.1 0.1,-0.1 0.5,-0.5 1,-0.9 1.6,-1.2 0,0 0.1,0 0.1,-0.1 0.2,-0.1 0.3,-0.2 0.5,-0.2 0,0 0.1,0 0.1,0 0.2,-0.1 0.3,-0.1 0.5,-0.1 0.2,0.2 0.4,0.4 0.6,0.5 0.6,0.4 1.2,0.8 1.8,1.1 0.1,0.1 0.2,0.1 0.4,0.2 0.5,0.2 1,0.3 1.4,0.4 0.5,0.1 1,0.1 1.5,0.1 0.6,0 1.1,-0.1 1.7,-0.2 0.1,0 0.1,0 0.2,0 v 0 c 0.1,-0.1 0.2,-0.1 0.3,-0.1 0,0 0,0 0,0 0.3,-0.1 0.5,-0.2 0.8,-0.3 0.1,0 0.2,-0.1 0.3,-0.1 0.5,-0.2 1,-0.5 1.4,-0.8 v 0 c 0,-0.1 0.1,-0.1 0.1,-0.1 0.3,-0.2 0.6,-0.5 0.8,-0.7 2.5,0.6 4.4,2.9 4.6,5.7 0.2,0 0.2,0.1 0.2,0.2 z"
   id="path419" />
	<path
   class="st10"
   d="m 261.2,197.4 h -30.1 c -1.1,0 -1.9,-0.9 -1.9,-1.9 v 0 c 0,-1.1 0.9,-1.9 1.9,-1.9 h 30.1 c 1.1,0 1.9,0.9 1.9,1.9 v 0 c 0,1 -0.8,1.9 -1.9,1.9 z"
   id="path421" />
	<path
   class="st10"
   d="m 302.1,203 h -71.4 c -0.8,0 -1.5,-0.7 -1.5,-1.5 v 0 c 0,-0.8 0.7,-1.5 1.5,-1.5 h 71.4 c 0.8,0 1.5,0.7 1.5,1.5 v 0 c 0,0.8 -0.7,1.5 -1.5,1.5 z"
   id="path423" />
	<path
   class="st10"
   d="m 302.1,208.7 h -71.4 c -0.8,0 -1.5,-0.7 -1.5,-1.5 v 0 c 0,-0.8 0.7,-1.5 1.5,-1.5 h 71.4 c 0.8,0 1.5,0.7 1.5,1.5 v 0 c 0,0.8 -0.7,1.5 -1.5,1.5 z"
   id="path425" />
	<path
   class="st10"
   d="m 302.1,214.4 h -71.4 c -0.8,0 -1.5,-0.7 -1.5,-1.5 v 0 c 0,-0.8 0.7,-1.5 1.5,-1.5 h 71.4 c 0.8,0 1.5,0.7 1.5,1.5 v 0 c 0,0.8 -0.7,1.5 -1.5,1.5 z"
   id="path427" />
	<path
   class="st10"
   d="m 302.1,220.1 h -71.4 c -0.8,0 -1.5,-0.7 -1.5,-1.5 v 0 c 0,-0.8 0.7,-1.5 1.5,-1.5 h 71.4 c 0.8,0 1.5,0.7 1.5,1.5 v 0 c 0,0.9 -0.7,1.5 -1.5,1.5 z"
   id="path429" />
	<path
   class="st10"
   d="m 302.1,225.9 h -71.4 c -0.8,0 -1.5,-0.7 -1.5,-1.5 v 0 c 0,-0.8 0.7,-1.5 1.5,-1.5 h 71.4 c 0.8,0 1.5,0.7 1.5,1.5 v 0 c 0,0.8 -0.7,1.5 -1.5,1.5 z"
   id="path431" />
	<path
   class="st10"
   d="m 261.2,253.4 h -30.1 c -1.1,0 -1.9,-0.9 -1.9,-1.9 v 0 c 0,-1.1 0.9,-1.9 1.9,-1.9 h 30.1 c 1.1,0 1.9,0.9 1.9,1.9 v 0 c 0,1 -0.8,1.9 -1.9,1.9 z"
   id="path433" />
	<path
   class="st10"
   d="m 302.1,259 h -71.4 c -0.8,0 -1.5,-0.7 -1.5,-1.5 v 0 c 0,-0.8 0.7,-1.5 1.5,-1.5 h 71.4 c 0.8,0 1.5,0.7 1.5,1.5 v 0 c 0,0.8 -0.7,1.5 -1.5,1.5 z"
   id="path435" />
	<path
   class="st10"
   d="m 302.1,264.7 h -71.4 c -0.8,0 -1.5,-0.7 -1.5,-1.5 v 0 c 0,-0.8 0.7,-1.5 1.5,-1.5 h 71.4 c 0.8,0 1.5,0.7 1.5,1.5 v 0 c 0,0.8 -0.7,1.5 -1.5,1.5 z"
   id="path437" />
	<path
   class="st10"
   d="m 302.1,270.4 h -71.4 c -0.8,0 -1.5,-0.7 -1.5,-1.5 v 0 c 0,-0.8 0.7,-1.5 1.5,-1.5 h 71.4 c 0.8,0 1.5,0.7 1.5,1.5 v 0 c 0,0.9 -0.7,1.5 -1.5,1.5 z"
   id="path439" />
	<path
   class="st10"
   d="m 302.1,276.2 h -71.4 c -0.8,0 -1.5,-0.7 -1.5,-1.5 v 0 c 0,-0.8 0.7,-1.5 1.5,-1.5 h 71.4 c 0.8,0 1.5,0.7 1.5,1.5 v 0 c 0,0.8 -0.7,1.5 -1.5,1.5 z"
   id="path441" />
	<path
   class="st10"
   d="m 302.1,281.9 h -71.4 c -0.8,0 -1.5,-0.7 -1.5,-1.5 v 0 c 0,-0.8 0.7,-1.5 1.5,-1.5 h 71.4 c 0.8,0 1.5,0.7 1.5,1.5 v 0 c 0,0.8 -0.7,1.5 -1.5,1.5 z"
   id="path443" />
	<path
   class="st7"
   d="m 350.7,241.8 12.4,-17.9 c -5.1,-5.4 -8.3,-12.7 -8.3,-20.8 0,-16.7 13.5,-30.2 30.2,-30.2 16.7,0 30.2,13.5 30.2,30.2 0,16.7 -13.5,30.2 -30.2,30.2 -4.4,0 -8.6,-0.9 -12.3,-2.6 z"
   id="path445" />
	<g
   id="g451">
		<path
   class="st7"
   d="m 139.5,284.5 -7.8,-11.2 c 3.2,-3.4 5.2,-7.9 5.2,-13 0,-10.4 -8.5,-18.9 -18.9,-18.9 -10.4,0 -18.9,8.5 -18.9,18.9 0,10.4 8.5,18.9 18.9,18.9 2.7,0 5.4,-0.6 7.7,-1.6 z"
   id="path447" />
		<path
   class="st11"
   d="m 127.3,257 c -0.2,-3.8 -3.3,-4.7 -3.3,-4.7 -3.9,-1.1 -6.6,2.1 -6.6,2.1 0,0 -2.7,-3.1 -6.6,-2.1 0,0 -3,0.8 -3.3,4.7 -0.3,4.2 7.2,11.3 9.8,13 2.8,-1.7 10.3,-8.8 10,-13 z"
   id="path449" />
	</g>
	<path
   class="st5"
   d="m 353.5,311.1 7.8,-11.2 c -3.2,-3.4 -5.2,-7.9 -5.2,-13 0,-10.4 8.5,-18.9 18.9,-18.9 10.4,0 18.9,8.5 18.9,18.9 0,10.4 -8.5,18.9 -18.9,18.9 -2.7,0 -5.4,-0.6 -7.7,-1.6 z"
   id="path453" />
	<path
   class="st11"
   d="m 365.7,283.6 c 0.2,-3.8 3.3,-4.7 3.3,-4.7 3.9,-1.1 6.6,2.1 6.6,2.1 0,0 2.7,-3.1 6.6,-2.1 0,0 3,0.8 3.3,4.7 0.3,4.2 -7.2,11.3 -9.8,13 -2.8,-1.7 -10.3,-8.9 -10,-13 z"
   id="path455" />
	<g
   id="g463">
		<path
   class="st11"
   d="m 139.1,198.1 -9.4,-13.6 c 3.9,-4.1 6.3,-9.6 6.3,-15.7 0,-12.7 -10.3,-22.9 -22.9,-22.9 -12.6,0 -22.9,10.3 -22.9,22.9 0,12.7 10.3,22.9 22.9,22.9 3.3,0 6.5,-0.7 9.4,-2 z"
   id="path457" />
		<path
   class="st7"
   d="m 99.8,167.7 c 0.2,0.1 0.3,0.2 0.5,0.2 0.2,0.1 0.2,0.4 0.1,0.5 -0.3,0.3 -0.4,0.6 -0.5,0.9 -0.1,0.7 0.1,1.2 0.6,1.6 0.2,0.2 0.4,0.3 0.7,0.4 0.3,0.1 0.3,0.4 0.1,0.6 -0.5,0.4 -0.6,1 -0.4,1.6 0.2,0.5 0.5,0.9 1,1.2 0.1,0 0.1,0.1 0.2,0.1 0.2,0.1 0.2,0.1 0.3,0.3 0,0.1 0,0.2 -0.1,0.3 -0.3,0.2 -0.4,0.5 -0.5,0.8 0,0.3 0,0.5 0.1,0.8 0.2,0.4 0.4,0.7 0.7,0.9 0.1,0.1 0.5,0.3 0.8,0.4 0.2,0.1 0.6,0.2 0.8,0.2 7.1,1.4 12,-0.4 12.6,-0.7 0.1,0 0.6,-0.3 0.7,-0.3 0,0 0.2,0 0.2,-0.1 V 167 c -0.3,-0.2 -0.5,-0.4 -0.8,-0.6 0,0 0,0 -0.1,-0.1 0,0 0,0 0,0 -1.4,-1.8 -2.3,-3.6 -3.3,-5.6 -0.7,-1.3 -0.9,-4.2 -0.9,-5.2 0,-0.4 -0.3,-1.1 -1.2,-1.1 -0.2,0 -0.7,0 -0.9,0.1 -0.3,0.1 -0.6,0.5 -0.9,1.1 -0.4,0.7 -0.6,1.5 -0.8,2.3 -0.1,0.3 -0.2,0.6 -0.2,0.9 0,0.2 0,0.4 0,0.7 0,0.3 0,0.5 0.1,0.8 0,0.5 0.1,1 0.2,1.5 0.1,0.5 0.2,1.1 0.3,1.6 0,0 0,0 0,0 0,0 0,0.1 0,0.1 0.2,0.7 -0.5,1.1 -0.9,1.3 -0.1,0 -0.6,0.1 -0.7,0.1 -2.3,0 -6,0 -6.5,0 -0.3,0 -0.6,0 -0.9,0 -0.5,0 -1.1,0.3 -1.2,1 -0.2,0.6 0.1,1.4 0.8,1.8 z"
   id="path459" />
		<path
   class="st7"
   d="m 121.8,179.7 h -1 c -1.7,0 -3.1,-1.4 -3.1,-3.1 v -8 c 0,-1.7 1.4,-3.1 3.1,-3.1 h 1 c 1.7,0 3.1,1.4 3.1,3.1 v 8 c 0,1.7 -1.4,3.1 -3.1,3.1 z"
   id="path461" />
	</g>
	<path
   class="st5"
   d="m 176.6,126.4 c 0,-7.5 8.4,-13.6 18.8,-13.6 10.4,0 18.8,6.1 18.8,13.6 0,7.5 -8.4,13.6 -18.8,13.6 -0.4,0 -0.7,0 -1.1,0 -2,1.8 -5.7,4 -12,3.5 0,0 3.7,-1.5 5,-4.8 -6.3,-2.3 -10.7,-6.9 -10.7,-12.3 z"
   id="path465" />
	<path
   class="st11"
   d="m 233.9,117.7 c 0,-7.5 -8.4,-13.6 -18.8,-13.6 -10.4,0 -18.8,6.1 -18.8,13.6 0,7.5 8.4,13.6 18.8,13.6 0.4,0 0.7,0 1.1,0 2,1.8 5.7,4 12,3.5 0,0 -3.7,-1.5 -5,-4.8 6.3,-2.3 10.7,-7 10.7,-12.3 z"
   id="path467" />
	<g
   class="st12"
   id="g471">
		<path
   d="m 233.8,117.7 c 0,0.6 -0.1,1.2 -0.2,1.8 h -37.4 c -0.1,-0.6 -0.2,-1.2 -0.2,-1.8 0,-7.5 8.4,-13.6 18.8,-13.6 10.6,0 19,6.1 19,13.6 z"
   id="path469" />
	</g>
	<g
   id="g479">
		<path
   class="st13"
   d="m 210,119.5 c 0,1.2 -0.9,2.1 -2.1,2.1 -1.2,0 -2.1,-0.9 -2.1,-2.1 0,-1.2 0.9,-2.1 2.1,-2.1 1.1,0 2.1,0.9 2.1,2.1 z"
   id="path473" />
		<circle
   class="st13"
   cx="215"
   cy="119.5"
   r="2.0999999"
   id="circle475" />
		<circle
   class="st13"
   cx="222.2"
   cy="119.5"
   r="2.0999999"
   id="circle477" />
	</g>
	<path
   class="st6"
   d="m 213.1,131.1 c -0.8,1.5 -1.9,2.8 -3.2,4 -9.6,-2.3 -16.3,-9.4 -15.2,-16.7 0.3,-2.1 1.2,-4 2.6,-5.6 0.1,-0.1 0.2,-0.2 0.3,-0.3 -0.1,0.1 -0.1,0.2 -0.2,0.4 -0.8,1.5 -1.2,3.1 -1.2,4.8 0,7 7.4,12.7 16.9,13.4 z"
   id="path481" />
	<g
   id="g489">
		<path
   class="st11"
   d="m 306.4,158.3 7.9,-11.4 c -3.2,-3.4 -5.2,-8.1 -5.2,-13.2 0,-10.6 8.6,-19.2 19.2,-19.2 10.6,0 19.2,8.6 19.2,19.2 0,10.6 -8.6,19.2 -19.2,19.2 -2.8,0 -5.4,-0.6 -7.8,-1.7 z"
   id="path483" />
		<path
   class="st7"
   d="m 317.9,135.6 c 0.1,-0.1 0.3,-0.1 0.4,-0.2 0.2,0 0.2,-0.3 0.1,-0.4 -0.2,-0.2 -0.3,-0.5 -0.4,-0.8 -0.1,-0.5 0.1,-1 0.5,-1.3 0.2,-0.1 0.3,-0.3 0.5,-0.3 0.2,-0.1 0.3,-0.4 0.1,-0.5 -0.4,-0.3 -0.5,-0.8 -0.3,-1.3 0.2,-0.4 0.4,-0.7 0.8,-1 0.1,0 0.1,-0.1 0.2,-0.1 0.1,0 0.2,-0.1 0.2,-0.3 0,-0.1 0,-0.2 -0.1,-0.3 -0.2,-0.2 -0.4,-0.4 -0.4,-0.7 0,-0.2 0,-0.4 0.1,-0.6 0.1,-0.3 0.4,-0.5 0.6,-0.8 0.1,-0.1 0.4,-0.3 0.7,-0.4 0.1,-0.1 0.5,-0.1 0.6,-0.2 5.8,-1.2 9.9,0.3 10.4,0.5 0.1,0 0.5,0.3 0.6,0.3 0,0 0.1,0 0.1,0 v 8.7 c -0.2,0.2 -0.4,0.3 -0.7,0.5 0,0 0,0 -0.1,0.1 0,0 0,0 0,0 -1.2,1.5 -1.9,3 -2.8,4.6 -0.6,1.1 -0.7,3.4 -0.7,4.3 0,0.4 -0.3,0.9 -1,0.9 -0.2,0 -0.5,0 -0.8,-0.1 -0.3,-0.1 -0.5,-0.4 -0.7,-0.9 -0.3,-0.6 -0.5,-1.2 -0.7,-1.9 -0.1,-0.2 -0.1,-0.5 -0.2,-0.7 0,-0.2 0,-0.4 0,-0.6 0,-0.2 0,-0.4 0,-0.6 0,-0.4 0.1,-0.8 0.2,-1.2 0.1,-0.4 0.2,-0.9 0.2,-1.3 0,0 0,0 0,0 0,0 0,-0.1 0,-0.1 0.1,-0.6 -0.4,-0.9 -0.8,-1 -0.1,0 -0.5,-0.1 -0.6,-0.1 -1.9,0 -5,0 -5.4,0 -0.3,0 -0.5,0 -0.8,0 -0.4,0 -0.9,-0.3 -1,-0.8 0.3,-0.4 0.6,-1.1 1.2,-1.4 z"
   id="path485" />
		<path
   class="st7"
   d="m 335.7,125.7 h -0.8 c -1.4,0 -2.6,1.2 -2.6,2.6 v 6.6 c 0,1.4 1.2,2.6 2.6,2.6 h 0.8 c 1.4,0 2.6,-1.2 2.6,-2.6 v -6.6 c -0.1,-1.4 -1.2,-2.6 -2.6,-2.6 z"
   id="path487" />
	</g>
	<g
   id="g497">
		<path
   class="st3"
   d="m 366.9,213.8 4.3,-22.7 h 4.6 l -1.7,9 h 0.1 c 1.3,-1.4 2.9,-2.4 5,-2.4 2.4,0 3.9,1.5 3.9,4.2 0,0.7 -0.1,1.9 -0.3,2.8 l -1.7,8.9 h -4.6 l 1.6,-8.6 c 0.1,-0.6 0.2,-1.3 0.2,-1.9 0,-1 -0.4,-1.8 -1.6,-1.8 -1.6,0 -3.2,1.9 -3.8,5.1 l -1.3,7.2 h -4.7 z"
   id="path491" />
		<path
   class="st3"
   d="m 384.9,213.8 3,-15.6 h 4.6 l -3,15.6 z m 3.6,-19.8 c 0,-1.6 1.2,-2.6 2.7,-2.6 1.3,0 2.3,0.9 2.3,2.3 0,1.6 -1.2,2.6 -2.7,2.6 -1.4,0 -2.3,-0.9 -2.3,-2.3 z"
   id="path493" />
		<path
   class="st3"
   d="m 393.4,211.6 c 0,-1.7 1.3,-3.2 3.1,-3.2 1.6,0 2.7,1.1 2.7,2.7 0,1.8 -1.3,3.1 -3.1,3.1 -1.7,0 -2.7,-1.1 -2.7,-2.6 z m 1.8,-4.8 2.1,-14.5 h 5 l -3.5,14.5 z"
   id="path495" />
	</g>
</g>
</svg>
